<?xml version="1.0" encoding="utf-8"?><svg viewBox="0 0 556 556" xmlns="http://www.w3.org/2000/svg" xmlns:xlink="http://www.w3.org/1999/xlink"><style>:root>svg{display:none}:root>svg:target{display:block}</style><svg viewBox="0 -46 417.813 417" id="check" xmlns="http://www.w3.org/2000/svg"><path d="M159.988 318.582c-3.988 4.012-9.43 6.25-15.082 6.25s-11.094-2.238-15.082-6.25L9.375 198.113c-12.5-12.5-12.5-32.77 0-45.246l15.082-15.086c12.504-12.5 32.75-12.5 45.25 0l75.2 75.203L348.104 9.781c12.504-12.5 32.77-12.5 45.25 0l15.082 15.086c12.5 12.5 12.5 32.766 0 45.246zm0 0"/></svg><svg viewBox="0 0 18 18" id="close" xmlns="http://www.w3.org/2000/svg"><defs><path id="ba" d="M691.485 160.07l-1.414 1.415-7.071-7.071-7.071 7.071-1.414-1.414 7.07-7.071-7.07-7.071 1.414-1.415 7.07 7.071 7.072-7.07 1.414 1.414-7.07 7.07z"/></defs><use xlink:href="#ba" transform="translate(-674 -144)"/></svg><svg viewBox="0 0 18 18" id="close-popup" xmlns="http://www.w3.org/2000/svg"><defs><path id="ca" d="M691.485 160.07l-1.414 1.415-7.071-7.071-7.071 7.071-1.414-1.414 7.07-7.071-7.07-7.071 1.414-1.415 7.07 7.071 7.072-7.07 1.414 1.414-7.07 7.07z"/></defs><use fill="#fff" xlink:href="#ca" transform="translate(-674 -144)"/></svg><svg viewBox="0 0 426.667 426.667" id="more" xmlns="http://www.w3.org/2000/svg"><circle cx="42.667" cy="213.333" r="42.667"/><circle cx="213.333" cy="213.333" r="42.667"/><circle cx="384" cy="213.333" r="42.667"/></svg><svg fill="#fff" viewBox="0 0 513.64 513.64" id="phone" xmlns="http://www.w3.org/2000/svg"><path d="M499.66 376.96l-71.68-71.68c-25.6-25.6-69.12-15.359-79.36 17.92-7.68 23.041-33.28 35.841-56.32 30.72-51.2-12.8-120.32-79.36-133.12-133.12-7.68-23.041 7.68-48.641 30.72-56.32 33.28-10.24 43.52-53.76 17.92-79.36l-71.68-71.68c-20.48-17.92-51.2-17.92-69.12 0L18.38 62.08c-48.64 51.2 5.12 186.88 125.44 307.2s256 176.641 307.2 125.44l48.64-48.64c17.921-20.48 17.921-51.2 0-69.12z"/></svg><svg viewBox="0 0 490.666 490.666" id="shopping-cart" xmlns="http://www.w3.org/2000/svg"><path d="M394.667 373.333c-29.397 0-53.333 23.936-53.333 53.333S365.269 480 394.667 480 448 456.064 448 426.666s-23.936-53.333-53.333-53.333zm0 85.333c-17.643 0-32-14.357-32-32s14.357-32 32-32 32 14.357 32 32-14.358 32-32 32zM181.333 373.333c-29.397 0-53.333 23.936-53.333 53.333S151.936 480 181.333 480s53.333-23.936 53.333-53.333-23.935-53.334-53.333-53.334zm0 85.333c-17.643 0-32-14.357-32-32s14.357-32 32-32 32 14.357 32 32-14.357 32-32 32zM437.333 330.666H191.125c-25.323 0-47.317-18.027-52.288-42.88L85.12 19.242a10.666 10.666 0 00-10.453-8.576h-64C4.779 10.666 0 15.445 0 21.333S4.779 32 10.667 32H65.92l51.989 259.989c6.955 34.773 37.76 60.011 73.216 60.011h246.208c5.888 0 10.667-4.779 10.667-10.667s-4.779-10.667-10.667-10.667z"/><path d="M488 78.272a10.693 10.693 0 00-8-3.605H96c-5.888 0-10.667 4.779-10.667 10.667S90.112 96 96 96h371.925l-15.168 121.301c-2.005 15.979-15.659 28.032-31.765 28.032H128c-5.888 0-10.667 4.779-10.667 10.667s4.779 10.667 10.667 10.667h292.992c26.837 0 49.6-20.075 52.928-46.72l16.661-133.291A10.635 10.635 0 00488 78.272z"/></svg><svg viewBox="0 0 24 24" id="telegram" xmlns="http://www.w3.org/2000/svg"><circle cx="12" cy="12" fill="#039be5" r="12"/><path d="M5.491 11.74l11.57-4.461c.537-.194 1.006.131.832.943l.001-.001-1.97 9.281c-.146.658-.537.818-1.084.508l-3-2.211-1.447 1.394c-.16.16-.295.295-.605.295l.213-3.053 5.56-5.023c.242-.213-.054-.333-.373-.121l-6.871 4.326-2.962-.924c-.643-.204-.657-.643.136-.953z" fill="#fff"/></svg><svg viewBox="-1 0 512 512" id="whatsapp" xmlns="http://www.w3.org/2000/svg"><path d="M10.895 512A10.895 10.895 0 01.387 498.23l33.285-121.546C12.949 339.21 2.023 296.82 2.039 253.789 2.098 113.848 115.98 0 255.91 0c67.871.027 131.645 26.465 179.578 74.434 47.926 47.972 74.309 111.742 74.29 179.558-.063 139.945-113.946 253.801-253.868 253.801h-.11c-40.87-.016-81.39-9.977-117.468-28.844L13.656 511.645c-.914.238-1.843.355-2.761.355zm0 0" fill="#e5e5e5"/><path d="M10.895 501.105l34.468-125.87c-21.261-36.84-32.445-78.63-32.43-121.442C12.989 119.859 121.98 10.895 255.91 10.895c64.992.027 125.996 25.324 171.871 71.238 45.871 45.914 71.125 106.945 71.102 171.855-.059 133.93-109.067 242.91-242.973 242.91-.008 0 .004 0 0 0h-.105c-40.664-.015-80.618-10.214-116.106-29.57zm134.77-77.75l7.378 4.372c31 18.398 66.543 28.128 102.789 28.148h.078c111.305 0 201.899-90.578 201.945-201.902.02-53.95-20.964-104.68-59.093-142.84-38.133-38.16-88.832-59.188-142.778-59.211C144.59 51.922 54 142.488 53.957 253.809c-.016 38.148 10.656 75.296 30.875 107.445l4.805 7.64-20.407 74.5zm0 0" fill="#fff"/><path d="M19.344 492.625l33.277-121.52c-20.531-35.562-31.324-75.91-31.312-117.234.05-129.297 105.273-234.488 234.558-234.488 62.75.027 121.645 24.449 165.922 68.773 44.29 44.324 68.664 103.242 68.64 165.899-.054 129.3-105.28 234.504-234.55 234.504-.012 0 .004 0 0 0h-.106c-39.253-.016-77.828-9.868-112.085-28.54zm0 0" fill="#64b161"/><g fill="#fff"><path d="M10.895 501.105l34.468-125.87c-21.261-36.84-32.445-78.63-32.43-121.442C12.989 119.859 121.98 10.895 255.91 10.895c64.992.027 125.996 25.324 171.871 71.238 45.871 45.914 71.125 106.945 71.102 171.855-.059 133.93-109.067 242.91-242.973 242.91-.008 0 .004 0 0 0h-.105c-40.664-.015-80.618-10.214-116.106-29.57zm134.77-77.75l7.378 4.372c31 18.398 66.543 28.128 102.789 28.148h.078c111.305 0 201.899-90.578 201.945-201.902.02-53.95-20.964-104.68-59.093-142.84-38.133-38.16-88.832-59.188-142.778-59.211C144.59 51.922 54 142.488 53.957 253.809c-.016 38.148 10.656 75.296 30.875 107.445l4.805 7.64-20.407 74.5zm0 0"/><path d="M195.184 152.246c-4.547-10.11-9.336-10.312-13.664-10.488-3.54-.153-7.59-.145-11.633-.145-4.047 0-10.625 1.524-16.188 7.598-5.566 6.074-21.254 20.762-21.254 50.633 0 29.875 21.758 58.738 24.793 62.793 3.035 4.05 42 67.308 103.707 91.644 51.285 20.227 61.72 16.203 72.852 15.192 11.133-1.012 35.918-14.688 40.976-28.864 5.063-14.175 5.063-26.324 3.543-28.867-1.52-2.527-5.566-4.047-11.636-7.082-6.07-3.035-35.918-17.726-41.485-19.75-5.566-2.027-9.613-3.035-13.66 3.043-4.05 6.07-15.676 19.742-19.219 23.79-3.543 4.058-7.086 4.566-13.156 1.527-6.07-3.043-25.625-9.45-48.82-30.133-18.047-16.09-30.235-35.965-33.777-42.043-3.54-6.07-.06-9.07 2.667-12.387 4.91-5.973 13.149-16.71 15.172-20.758 2.024-4.054 1.012-7.597-.504-10.637-1.52-3.035-13.32-33.058-18.714-45.066zm0 0" fill-rule="evenodd"/></g></svg></svg>