<svg height="512" viewBox="0 0 74 74" width="512" xmlns="http://www.w3.org/2000/svg"><path d="M20 72a1 1 0 01-.33-.06l-17-6A1 1 0 012 65V27a1 1 0 01.42-.82 1 1 0 01.91-.12l17 6A1 1 0 0121 33v38a1 1 0 01-1 1zM4 64.29l15 5.3V33.71l-15-5.3z"/><path d="M2.678 43.946l.666-1.886 17.002 6.004-.666 1.886zm-.002 6.008l.666-1.886 17.002 6.004-.666 1.886z"/><path d="M20 72a1 1 0 01-1-1V33a1 1 0 01.67-.94L32 27.7l.66 1.88L21 33.71v35.88l15-5.3v-29.5h2V65a1 1 0 01-.67.94l-17 6A1 1 0 0120 72z"/><path d="M19.674 48.065l17.002-6.004.666 1.886L20.34 49.95zm-.002 5.998l17.002-6.004.666 1.886-17.002 6.004zM54 72a1 1 0 01-1-1V33a1 1 0 01.67-.94l17-6A1 1 0 0172 27v38a1 1 0 01-.67.94l-17 6A1 1 0 0154 72zm1-38.29v35.88l15-5.3V28.41z"/><path d="M53.676 48.063l17.002-6.004.666 1.886-17.002 6.004zm-.002 5.997l17.002-6.003.666 1.886-17.002 6.004z"/><path d="M54 72a1 1 0 01-.33-.06l-17-6A1 1 0 0136 65V34.79h2v29.5l15 5.3V33.71l-11.68-4.13.68-1.88 12.35 4.36A1 1 0 0155 33v38a1 1 0 01-1 1z"/><path d="M36.68 43.954l.666-1.886 17.002 6.004-.666 1.886zm-.002 5.998l.666-1.886 17.002 6.004-.666 1.886zM37 36a1 1 0 01-.74-.33C35.84 35.2 26 24.11 26 13a11 11 0 0122 0c0 11.11-9.84 22.2-10.26 22.67A1 1 0 0137 36zm0-32a9 9 0 00-9 9c0 8.64 6.72 17.64 9 20.45 2.28-2.81 9-11.82 9-20.45a9 9 0 00-9-9z"/><path d="M37 18a5 5 0 115-5 5 5 0 01-5 5zm0-8a3 3 0 103 3 3 3 0 00-3-3z"/></svg>