<svg height="512" width="512" xmlns="http://www.w3.org/2000/svg"><path d="M475.074 0H36.926C16.531 0 0 16.531 0 36.926v438.148C0 495.469 16.531 512 36.926 512h438.148C495.469 512 512 495.469 512 475.074V36.926C512 16.531 495.469 0 475.074 0zm-90.827 195.959v34.613c-16.322.006-32.181-3.192-47.137-9.503a120.436 120.436 0 01-26.772-15.613l.246 106.542c-.103 23.991-9.594 46.532-26.772 63.51-13.98 13.82-31.695 22.609-50.895 25.453a93.827 93.827 0 01-13.746 1.011c-20.553 0-40.067-6.659-56.029-18.943a93.095 93.095 0 01-8.612-7.521c-18.617-18.4-28.217-43.34-26.601-69.575 1.234-19.971 9.229-39.017 22.558-53.945 17.635-19.754 42.306-30.719 68.684-30.719 4.643 0 9.234.348 13.746 1.017v48.399a43.332 43.332 0 00-13.603-2.187c-24.1 0-43.597 19.662-43.237 43.779.228 15.431 8.658 28.92 21.09 36.355a42.966 42.966 0 0019.737 6.053 43.363 43.363 0 0016.013-2.124c17.218-5.688 29.639-21.861 29.639-40.935l.057-71.346V110.028h47.668a74.12 74.12 0 001.416 13.797c3.598 18.075 13.786 33.757 27.966 44.448 12.364 9.326 27.76 14.854 44.448 14.854.011 0 .148 0 .137-.011v12.843z"/></svg>