<svg id="Icons" height="512" viewBox="0 0 74 74" width="512" xmlns="http://www.w3.org/2000/svg"><path d="m20 72a1 1 0 0 1 -.33-.06l-17-6a1 1 0 0 1 -.67-.94v-38a1 1 0 0 1 .42-.82 1 1 0 0 1 .91-.12l17 6a1 1 0 0 1 .67.94v38a1 1 0 0 1 -1 1zm-16-7.71 15 5.3v-35.88l-15-5.3z"/><path d="m10.5 36.99h2v18.03h-2z" transform="matrix(.333 -.943 .943 .333 -35.7 41.53)"/><path d="m10.5 42.99h2v18.03h-2z" transform="matrix(.333 -.943 .943 .333 -41.36 45.54)"/><path d="m20 72a1 1 0 0 1 -1-1v-38a1 1 0 0 1 .67-.94l12.33-4.36.66 1.88-11.66 4.13v35.88l15-5.3v-29.5h2v30.21a1 1 0 0 1 -.67.94l-17 6a1 1 0 0 1 -.33.06z"/><path d="m19.49 45h18.03v2h-18.03z" transform="matrix(.943 -.333 .333 .943 -13.69 12.12)"/><path d="m19.49 51h18.03v2h-18.03z" transform="matrix(.943 -.333 .333 .943 -15.69 12.46)"/><path d="m54 72a1 1 0 0 1 -1-1v-38a1 1 0 0 1 .67-.94l17-6a1 1 0 0 1 1.33.94v38a1 1 0 0 1 -.67.94l-17 6a1 1 0 0 1 -.33.06zm1-38.29v35.88l15-5.3v-35.88z"/><path d="m53.49 45h18.03v2h-18.03z" transform="matrix(.943 -.333 .333 .943 -11.75 23.44)"/><path d="m53.49 51h18.03v2h-18.03z" transform="matrix(.943 -.333 .333 .943 -13.75 23.78)"/><path d="m54 72a1 1 0 0 1 -.33-.06l-17-6a1 1 0 0 1 -.67-.94v-30.21h2v29.5l15 5.3v-35.88l-11.68-4.13.68-1.88 12.35 4.36a1 1 0 0 1 .65.94v38a1 1 0 0 1 -1 1z"/><path d="m44.5 36.99h2v18.03h-2z" transform="matrix(.333 -.943 .943 .333 -13.02 73.6)"/><path d="m44.5 42.99h2v18.03h-2z" transform="matrix(.333 -.943 .943 .333 -18.68 77.6)"/><path d="m37 36a1 1 0 0 1 -.74-.33c-.42-.47-10.26-11.56-10.26-22.67a11 11 0 0 1 22 0c0 11.11-9.84 22.2-10.26 22.67a1 1 0 0 1 -.74.33zm0-32a9 9 0 0 0 -9 9c0 8.64 6.72 17.64 9 20.45 2.28-2.81 9-11.82 9-20.45a9 9 0 0 0 -9-9z"/><path d="m37 18a5 5 0 1 1 5-5 5 5 0 0 1 -5 5zm0-8a3 3 0 1 0 3 3 3 3 0 0 0 -3-3z"/></svg>